<svg width="422.9px" height="118.9px" xmlns="http://www.w3.org/2000/svg" viewBox="38.53093872070312 15.559999084472658 422.93812255859376 118.88000183105468" style="background: rgba(0, 0, 0, 0)" preserveAspectRatio="xMidYMid"><defs><linearGradient id="editing-gradient-gradient" x1="0" x2="1" y1="0.5" y2="0.5" gradientUnits="objectBoundingBox"><stop offset="0" stop-color="#ff00ff"></stop><stop offset="1" stop-color="#00ffff"></stop></linearGradient></defs><g><g transform="matrix(1.3,0,0,1.4,97.6,158.1)"><path d="M -39.8 -41.3 L -28.8 -84.2 L -28.8 -84.2 Q -28.4 -85.6 -26.9 -85.6 L -26.9 -85.6 L -25 -85.6 L -25 -85.6 Q -24.3 -85.6 -23.9 -85.1 L -23.9 -85.1 L -23.9 -85.1 Q -23.6 -84.5 -23.8 -83.6 L -23.8 -83.6 L -34.7 -40.7 L -34.7 -40.7 Q -35.1 -39.3 -36.6 -39.3 L -36.6 -39.3 L -38.5 -39.3 L -38.5 -39.3 Q -39.3 -39.3 -39.6 -39.9 L -39.6 -39.9 L -39.6 -39.9 Q -40 -40.4 -39.8 -41.3 L -39.8 -41.3 Z M -25.1 -40.9 L -17.3 -70.1 L -17.3 -70.1 Q -17 -71.3 -16.7 -71.6 L -16.7 -71.6 L -16.7 -71.6 Q -16.5 -71.8 -16 -71.8 L -16 -71.8 L -13.4 -71.8 L -13.4 -71.8 Q -11.8 -71.8 -12.4 -69.9 L -12.4 -69.9 L -17.2 -53.8 L -10.5 -64.8 L -10.5 -64.8 Q -8.6 -68 -6.2 -69.9 L -6.2 -69.9 L -6.2 -69.9 Q -3.9 -71.8 -2.4 -71.8 L -2.4 -71.8 L -1 -71.8 L -1 -71.8 Q 0 -71.8 0.6 -71.4 L 0.6 -71.4 L 0.6 -71.4 Q 1.2 -71.1 1.5 -69.9 L 1.5 -69.9 L 1.5 -69.9 Q 1.9 -68.7 1.2 -66.3 L 1.2 -66.3 L -2.1 -54.3 L 4.1 -64.9 L 4.1 -64.9 Q 6.1 -68.3 8.4 -70.1 L 8.4 -70.1 L 8.4 -70.1 Q 10.6 -71.8 12.2 -71.8 L 12.2 -71.8 L 13.6 -71.8 L 13.6 -71.8 Q 14.6 -71.8 15.2 -71.4 L 15.2 -71.4 L 15.2 -71.4 Q 15.8 -71.1 16.1 -69.9 L 16.1 -69.9 L 16.1 -69.9 Q 16.5 -68.7 15.8 -66.3 L 15.8 -66.3 L 8.6 -40.2 L 8.6 -40.2 Q 8.4 -39.3 7.6 -39.3 L 7.6 -39.3 L 4.2 -39.3 L 4.2 -39.3 Q 3.3 -39.3 3.7 -40.8 L 3.7 -40.8 L 10.5 -62.8 L 10.5 -62.8 Q 11 -64.5 11 -65.1 L 11 -65.1 L 11 -65.1 Q 11 -65.6 10.5 -65.6 L 10.5 -65.6 L 10.5 -65.6 Q 10.1 -65.6 9.5 -65 L 9.5 -65 L 9.5 -65 Q 8.9 -64.4 7.8 -62.9 L 7.8 -62.9 L 7.8 -62.9 Q 6.6 -61.2 5.2 -58.8 L 5.2 -58.8 L 5.2 -58.8 Q 3.7 -56.5 1.4 -52.8 L 1.4 -52.8 L 1.4 -52.8 Q -0.9 -49.2 -1.7 -47.9 L -1.7 -47.9 L -1.7 -47.9 Q -4.6 -43.3 -6 -40.2 L -6 -40.2 L -6 -40.2 Q -6.4 -39.3 -7.1 -39.3 L -7.1 -39.3 L -10.4 -39.3 L -10.4 -39.3 Q -11.3 -39.3 -10.9 -40.8 L -10.9 -40.8 L -4.1 -62.8 L -4.1 -62.8 Q -3.6 -64.5 -3.6 -65.1 L -3.6 -65.1 L -3.6 -65.1 Q -3.6 -65.6 -4.1 -65.6 L -4.1 -65.6 L -4.1 -65.6 Q -4.5 -65.6 -5.1 -65 L -5.1 -65 L -5.1 -65 Q -5.7 -64.4 -6.8 -62.9 L -6.8 -62.9 L -6.8 -62.9 Q -8 -61.2 -9.7 -58.4 L -9.7 -58.4 L -9.7 -58.4 Q -11.4 -55.6 -14 -51.5 L -14 -51.5 L -14 -51.5 Q -19 -44 -21 -40.2 L -21 -40.2 L -21 -40.2 Q -21.5 -39.3 -22.6 -39.3 L -22.6 -39.3 L -24.4 -39.3 L -24.4 -39.3 Q -24.7 -39.3 -25 -39.8 L -25 -39.8 L -25 -39.8 Q -25.3 -40.3 -25.1 -40.9 L -25.1 -40.9 Z M 35.6 -70.5 L 35.6 -70.5 L 35.6 -70.5 Q 35.8 -72 37 -72 L 37 -72 L 38.5 -72.1 L 38.5 -72.1 Q 40.8 -72 40.2 -69.8 L 40.2 -69.8 L 32.5 -44.2 L 32.5 -44.2 Q 34.5 -45.6 36.5 -48.4 L 36.5 -48.4 L 36.5 -48.4 Q 37.2 -49.4 38.1 -48.8 L 38.1 -48.8 L 39.6 -47.8 L 39.6 -47.8 Q 40.6 -47.1 40 -46.2 L 40 -46.2 L 40 -46.2 Q 37.3 -43.1 35.1 -41.4 L 35.1 -41.4 L 35.1 -41.4 Q 32.9 -39.7 29.9 -39 L 29.9 -39 L 29.9 -39 Q 29 -38.9 28.7 -39.7 L 28.7 -39.7 L 27.6 -43.3 L 27.6 -43.3 Q 25.7 -40.9 24.5 -40 L 24.5 -40 L 24.5 -40 Q 23.2 -39.1 22.5 -39.1 L 22.5 -39.1 L 22.4 -39.1 L 22.4 -39.1 Q 21.8 -39.1 20.8 -39.8 L 20.8 -39.8 L 20.8 -39.8 Q 19.7 -40.6 18.7 -41.8 L 18.7 -41.8 L 18.7 -41.8 Q 17.7 -42.9 17.2 -44.3 L 17.2 -44.3 L 17.2 -44.3 Q 16.8 -45.8 17.3 -49.5 L 17.3 -49.5 L 17.3 -49.5 Q 17.8 -53.2 20.2 -59.8 L 20.2 -59.8 L 20.2 -59.8 Q 22.6 -66.5 25.1 -69.1 L 25.1 -69.1 L 25.1 -69.1 Q 27.7 -71.7 31.5 -71.7 L 31.5 -71.7 L 31.5 -71.7 Q 33.6 -71.7 35.6 -70.5 Z M 34.6 -66.9 L 34.6 -66.9 L 34.6 -66.9 Q 31.2 -68.8 29 -67 L 29 -67 L 29 -67 Q 26.9 -65.2 24.9 -59.6 L 24.9 -59.6 L 24.9 -59.6 Q 22.8 -53.9 22.2 -50.7 L 22.2 -50.7 L 22.2 -50.7 Q 21.6 -47.5 21.7 -46.4 L 21.7 -46.4 L 21.7 -46.4 Q 21.8 -45.2 22.8 -44.7 L 22.8 -44.7 L 22.8 -44.7 Q 23.8 -44.2 26.2 -46.8 L 26.2 -46.8 L 26.2 -46.8 Q 28.6 -49.4 30.4 -54 L 30.4 -54 L 30.4 -54 Q 32.2 -58.5 34.6 -66.9 Z M 54.7 -71.7 L 54.7 -71.7 L 54.7 -71.7 Q 56.9 -71.7 58.8 -70.4 L 58.8 -70.4 L 58.8 -70.4 Q 59.2 -71.7 60.2 -71.7 L 60.2 -71.7 L 62.4 -71.8 L 62.4 -71.8 Q 64 -71.8 63.6 -70.1 L 63.6 -70.1 L 63.6 -70.1 Q 62.2 -64.3 54.2 -36.1 L 54.2 -36.1 L 54.2 -36.1 Q 52.6 -30.1 49.2 -28.3 L 49.2 -28.3 L 49.2 -28.3 Q 47.4 -27.2 46.4 -27.1 L 46.4 -27.1 L 46.4 -27.1 Q 45.4 -27.1 43.4 -28.2 L 43.4 -28.2 L 36.8 -31.9 L 36.8 -31.9 Q 35.3 -32.7 36.3 -34.2 L 36.3 -34.2 L 37.3 -35.6 L 37.3 -35.6 Q 38.3 -36.7 39.4 -36.1 L 39.4 -36.1 L 46.5 -31.7 L 46.5 -31.7 Q 48 -31.1 48.6 -33.5 L 48.6 -33.5 L 51.7 -44.7 L 51.7 -44.7 Q 50.3 -42.3 48.5 -40.7 L 48.5 -40.7 L 48.5 -40.7 Q 46.8 -39.1 45.7 -39.1 L 45.7 -39.1 L 45.6 -39.1 L 45.6 -39.1 Q 45.1 -39.1 44 -39.8 L 44 -39.8 L 44 -39.8 Q 42.9 -40.6 41.9 -41.8 L 41.9 -41.8 L 41.9 -41.8 Q 40.9 -43.1 40.4 -44.5 L 40.4 -44.5 L 40.4 -44.5 Q 40 -45.9 40.6 -49.7 L 40.6 -49.7 L 40.6 -49.7 Q 41.2 -53.6 43.5 -60.1 L 43.5 -60.1 L 43.5 -60.1 Q 45.8 -66.5 48.4 -69.1 L 48.4 -69.1 L 48.4 -69.1 Q 50.9 -71.7 54.7 -71.7 Z M 57.6 -66.3 L 57.8 -66.9 L 57.8 -66.9 Q 54.6 -68.7 52.5 -67.2 L 52.5 -67.2 L 52.5 -67.2 Q 50.3 -65.7 48.2 -59.9 L 48.2 -59.9 L 48.2 -59.9 Q 46.1 -54.1 45.4 -50.8 L 45.4 -50.8 L 45.4 -50.8 Q 44.8 -47.5 44.9 -46.4 L 44.9 -46.4 L 44.9 -46.4 Q 45 -45.2 46.1 -44.7 L 46.1 -44.7 L 46.1 -44.7 Q 47.1 -44.2 49.6 -47 L 49.6 -47 L 49.6 -47 Q 52.1 -49.8 53.8 -54.3 L 53.8 -54.3 L 53.8 -54.3 Q 55.5 -58.8 57.6 -66.3 L 57.6 -66.3 Z M 68.1 -48.1 L 68.1 -48.1 L 68.1 -48.1 Q 67.2 -43.4 69.8 -42.9 L 69.8 -42.9 L 69.8 -42.9 Q 72.1 -43.8 75.6 -47.7 L 75.6 -47.7 L 75.6 -47.7 Q 76.2 -48.3 76.9 -47.8 L 76.9 -47.8 L 78.1 -47.1 L 78.1 -47.1 Q 79 -46.4 78.7 -45.7 L 78.7 -45.7 L 78.7 -45.7 Q 77.5 -43.4 74.2 -40.8 L 74.2 -40.8 L 74.2 -40.8 Q 70.9 -38.2 68.9 -38.6 L 68.9 -38.6 L 68.9 -38.6 Q 64.4 -39.7 63.6 -43.3 L 63.6 -43.3 L 63.6 -43.3 Q 62.7 -48.1 65.2 -56.5 L 65.2 -56.5 L 65.2 -56.5 Q 67.7 -64.9 72.1 -69.2 L 72.1 -69.2 L 72.1 -69.2 Q 73.7 -70.7 76 -71.4 L 76 -71.4 L 76 -71.4 Q 78.4 -72.1 81 -71 L 81 -71 L 81 -71 Q 83.6 -69.9 83.5 -64.7 L 83.5 -64.7 L 83.5 -64.7 Q 83.5 -59.6 79 -55 L 79 -55 L 79 -55 Q 74.5 -50.4 68.1 -48.1 Z M 68.8 -52.3 L 68.8 -52.3 L 68.8 -52.3 Q 71.8 -53.6 74 -55.3 L 74 -55.3 L 74 -55.3 Q 76.1 -57 77.5 -59.5 L 77.5 -59.5 L 77.5 -59.5 Q 78.9 -61.9 78.9 -64.5 L 78.9 -64.5 L 78.9 -64.5 Q 78.9 -67.1 77.4 -67.1 L 77.4 -67.1 L 77.4 -67.1 Q 74.5 -67.1 72.3 -62.3 L 72.3 -62.3 L 72.3 -62.3 Q 70.1 -57.5 68.8 -52.3 Z M 96.2 -72.2 L 96.2 -72.2 L 97.2 -72.2 L 97.2 -72.2 Q 99.4 -72.2 101.2 -70.5 L 101.2 -70.5 L 101.2 -70.5 Q 103.1 -68.8 104.2 -66.4 L 104.2 -66.4 L 104.2 -66.4 Q 104.9 -65.1 103.8 -64.4 L 103.8 -64.4 L 101.8 -63.3 L 101.8 -63.3 Q 100.5 -62.3 99.9 -63.6 L 99.9 -63.6 L 99.9 -63.6 Q 99.9 -63.7 99.4 -64.8 L 99.4 -64.8 L 99.4 -64.8 Q 99 -65.8 98.7 -66.3 L 98.7 -66.3 L 98.7 -66.3 Q 98.4 -66.8 97.7 -67.3 L 97.7 -67.3 L 97.7 -67.3 Q 97 -67.9 96.1 -68 L 96.1 -68 L 96.1 -68 Q 94.5 -67.7 93.1 -65.9 L 93.1 -65.9 L 93.1 -65.9 Q 91.7 -64.1 91.7 -60.8 L 91.7 -60.8 L 91.7 -60.8 Q 91.7 -59.4 92.4 -58.9 L 92.4 -58.9 L 92.4 -58.9 Q 93 -58.3 94.7 -58 L 94.7 -58 L 96.5 -57.6 L 96.5 -57.6 Q 100.4 -56.8 100.4 -51.1 L 100.4 -51.1 L 100.4 -51.1 Q 100.4 -47.8 97.9 -43.4 L 97.9 -43.4 L 97.9 -43.4 Q 96.7 -41.4 94.7 -40 L 94.7 -40 L 94.7 -40 Q 92.6 -38.6 90.2 -38.6 L 90.2 -38.6 L 89.7 -38.6 L 89.7 -38.6 Q 87.3 -38.6 85.4 -40.3 L 85.4 -40.3 L 85.4 -40.3 Q 83.5 -42 82.7 -43.7 L 82.7 -43.7 L 82.7 -43.7 Q 81.9 -45.5 82.7 -46.4 L 82.7 -46.4 L 84.1 -47.5 L 84.1 -47.5 Q 84.8 -48.2 85.5 -48.1 L 85.5 -48.1 L 85.5 -48.1 Q 86.3 -48.1 86.6 -47 L 86.6 -47 L 86.6 -47 Q 86.9 -45.9 88.1 -44.4 L 88.1 -44.4 L 88.1 -44.4 Q 89.4 -42.9 90.5 -42.9 L 90.5 -42.9 L 90.5 -42.9 Q 92.4 -43.2 93.8 -45.1 L 93.8 -45.1 L 93.8 -45.1 Q 95.2 -47.1 95.2 -49.6 L 95.2 -49.6 L 95.2 -49.6 Q 95.2 -52.2 94.8 -52.9 L 94.8 -52.9 L 94.8 -52.9 Q 94.3 -53.6 92.6 -53.9 L 92.6 -53.9 L 91.2 -54.3 L 91.2 -54.3 Q 88.7 -54.8 87.7 -56.3 L 87.7 -56.3 L 87.7 -56.3 Q 86.7 -57.8 86.7 -60.3 L 86.7 -60.3 L 86.7 -60.3 Q 86.7 -64.4 89.6 -68.3 L 89.6 -68.3 L 89.6 -68.3 Q 92.6 -72.2 96.2 -72.2 Z M 129.4 -61 L 129.4 -61 L 141.1 -61 L 141.1 -61 Q 142.1 -61 141.6 -59.6 L 141.6 -59.6 L 141.6 -59.6 Q 138 -48 134.4 -43.6 L 134.4 -43.6 L 134.4 -43.6 Q 130.8 -39.3 126.5 -38.9 L 126.5 -38.9 L 126.5 -38.9 Q 122.1 -38.6 119.4 -41.2 L 119.4 -41.2 L 119.4 -41.2 Q 116.7 -43.9 116.4 -51.1 L 116.4 -51.1 L 116.4 -51.1 Q 116.2 -58.3 118.4 -66.6 L 118.4 -66.6 L 118.4 -66.6 Q 120.7 -74.8 125.1 -80 L 125.1 -80 L 125.1 -80 Q 129.4 -85.1 133.4 -85.8 L 133.4 -85.8 L 133.4 -85.8 Q 137.4 -86.6 139.6 -85 L 139.6 -85 L 139.6 -85 Q 141.8 -83.5 143 -80 L 143 -80 L 143 -80 Q 144.2 -76.4 144.2 -74.6 L 144.2 -74.6 L 144.2 -74.6 Q 144.2 -72.8 142.9 -72.3 L 142.9 -72.3 L 140.7 -71.7 L 140.7 -71.7 Q 140.1 -71.5 139.6 -71.9 L 139.6 -71.9 L 139.6 -71.9 Q 139.2 -72.3 139.1 -74.2 L 139.1 -74.2 L 139.1 -74.2 Q 139 -76.2 138.1 -78.3 L 138.1 -78.3 L 138.1 -78.3 Q 137.2 -80.4 135.8 -80.8 L 135.8 -80.8 L 135.8 -80.8 Q 132.7 -81.5 129.2 -76.9 L 129.2 -76.9 L 129.2 -76.9 Q 125.6 -72.3 123.7 -65.2 L 123.7 -65.2 L 123.7 -65.2 Q 121.8 -58.2 121.6 -53.4 L 121.6 -53.4 L 121.6 -53.4 Q 121.5 -48.6 122.5 -46 L 122.5 -46 L 122.5 -46 Q 123.5 -43.4 125.7 -43.5 L 125.7 -43.5 L 125.7 -43.5 Q 128 -43.7 130.3 -46.5 L 130.3 -46.5 L 130.3 -46.5 Q 132.6 -49.3 134.9 -56.7 L 134.9 -56.7 L 128.7 -56.7 L 128.7 -56.7 Q 127.5 -56.7 128 -58.5 L 128 -58.5 L 128.5 -60.3 L 128.5 -60.3 Q 128.7 -61 129.4 -61 Z M 162.1 -70.5 L 162.1 -70.5 L 162.1 -70.5 Q 162.4 -72 163.6 -72 L 163.6 -72 L 165.1 -72.1 L 165.1 -72.1 Q 167.4 -72 166.8 -69.8 L 166.8 -69.8 L 159.1 -44.2 L 159.1 -44.2 Q 161.1 -45.6 163.1 -48.4 L 163.1 -48.4 L 163.1 -48.4 Q 163.8 -49.4 164.6 -48.8 L 164.6 -48.8 L 166.2 -47.8 L 166.2 -47.8 Q 167.2 -47.1 166.5 -46.2 L 166.5 -46.2 L 166.5 -46.2 Q 163.9 -43.1 161.7 -41.4 L 161.7 -41.4 L 161.7 -41.4 Q 159.5 -39.7 156.5 -39 L 156.5 -39 L 156.5 -39 Q 155.6 -38.9 155.3 -39.7 L 155.3 -39.7 L 154.1 -43.3 L 154.1 -43.3 Q 152.3 -40.9 151 -40 L 151 -40 L 151 -40 Q 149.7 -39.1 149.1 -39.1 L 149.1 -39.1 L 148.9 -39.1 L 148.9 -39.1 Q 148.4 -39.1 147.4 -39.8 L 147.4 -39.8 L 147.4 -39.8 Q 146.3 -40.6 145.3 -41.8 L 145.3 -41.8 L 145.3 -41.8 Q 144.2 -42.9 143.8 -44.3 L 143.8 -44.3 L 143.8 -44.3 Q 143.3 -45.8 143.9 -49.5 L 143.9 -49.5 L 143.9 -49.5 Q 144.4 -53.2 146.8 -59.8 L 146.8 -59.8 L 146.8 -59.8 Q 149.2 -66.5 151.7 -69.1 L 151.7 -69.1 L 151.7 -69.1 Q 154.2 -71.7 158.1 -71.7 L 158.1 -71.7 L 158.1 -71.7 Q 160.2 -71.7 162.1 -70.5 Z M 161.1 -66.9 L 161.1 -66.9 L 161.1 -66.9 Q 157.7 -68.8 155.6 -67 L 155.6 -67 L 155.6 -67 Q 153.5 -65.2 151.4 -59.6 L 151.4 -59.6 L 151.4 -59.6 Q 149.4 -53.9 148.8 -50.7 L 148.8 -50.7 L 148.8 -50.7 Q 148.1 -47.5 148.2 -46.4 L 148.2 -46.4 L 148.2 -46.4 Q 148.3 -45.2 149.4 -44.7 L 149.4 -44.7 L 149.4 -44.7 Q 150.4 -44.2 152.8 -46.8 L 152.8 -46.8 L 152.8 -46.8 Q 155.2 -49.4 157 -54 L 157 -54 L 157 -54 Q 158.8 -58.5 161.1 -66.9 Z M 183.1 -86.4 L 183.1 -86.4 L 171.5 -40.7 L 171.5 -40.7 Q 171.1 -39.3 169.5 -39.3 L 169.5 -39.3 L 168.5 -39.3 L 168.5 -39.3 Q 166.1 -39.3 166.6 -41.3 L 166.6 -41.3 L 178.3 -86.4 L 178.3 -86.4 Q 178.7 -87.8 180.2 -87.8 L 180.2 -87.8 L 181.7 -87.8 L 181.7 -87.8 Q 183.5 -87.8 183.1 -86.4 Z M 194.9 -86.4 L 194.9 -86.4 L 183.3 -40.7 L 183.3 -40.7 Q 182.9 -39.3 181.3 -39.3 L 181.3 -39.3 L 180.3 -39.3 L 180.3 -39.3 Q 177.9 -39.3 178.4 -41.3 L 178.4 -41.3 L 190.1 -86.4 L 190.1 -86.4 Q 190.5 -87.8 192 -87.8 L 192 -87.8 L 193.5 -87.8 L 193.5 -87.8 Q 195.3 -87.8 194.9 -86.4 Z M 195.1 -48.1 L 195.1 -48.1 L 195.1 -48.1 Q 194.3 -43.4 196.9 -42.9 L 196.9 -42.9 L 196.9 -42.9 Q 199.2 -43.8 202.7 -47.7 L 202.7 -47.7 L 202.7 -47.7 Q 203.3 -48.3 204 -47.8 L 204 -47.8 L 205.2 -47.1 L 205.2 -47.1 Q 206.1 -46.4 205.8 -45.7 L 205.8 -45.7 L 205.8 -45.7 Q 204.6 -43.4 201.3 -40.8 L 201.3 -40.8 L 201.3 -40.8 Q 198 -38.2 196 -38.6 L 196 -38.6 L 196 -38.6 Q 191.5 -39.7 190.7 -43.3 L 190.7 -43.3 L 190.7 -43.3 Q 189.8 -48.1 192.3 -56.5 L 192.3 -56.5 L 192.3 -56.5 Q 194.8 -64.9 199.2 -69.2 L 199.2 -69.2 L 199.2 -69.2 Q 200.8 -70.7 203.1 -71.4 L 203.1 -71.4 L 203.1 -71.4 Q 205.5 -72.1 208.1 -71 L 208.1 -71 L 208.1 -71 Q 210.6 -69.9 210.6 -64.7 L 210.6 -64.7 L 210.6 -64.7 Q 210.6 -59.6 206.1 -55 L 206.1 -55 L 206.1 -55 Q 201.6 -50.4 195.1 -48.1 Z M 195.9 -52.3 L 195.9 -52.3 L 195.9 -52.3 Q 198.9 -53.6 201.1 -55.3 L 201.1 -55.3 L 201.1 -55.3 Q 203.2 -57 204.6 -59.5 L 204.6 -59.5 L 204.6 -59.5 Q 206 -61.9 206 -64.5 L 206 -64.5 L 206 -64.5 Q 206 -67.1 204.5 -67.1 L 204.5 -67.1 L 204.5 -67.1 Q 201.6 -67.1 199.4 -62.3 L 199.4 -62.3 L 199.4 -62.3 Q 197.1 -57.5 195.9 -52.3 Z M 223.3 -70.4 L 221.5 -63.2 L 221.5 -63.2 Q 223.5 -66.5 225.2 -68.7 L 225.2 -68.7 L 225.2 -68.7 Q 227 -70.9 227.8 -71.5 L 227.8 -71.5 L 227.8 -71.5 Q 228.6 -72 230.6 -72 L 230.6 -72 L 231.2 -72 L 231.2 -72 Q 233.1 -72 232.5 -70.6 L 232.5 -70.6 L 232.5 -70.6 Q 232.1 -69.8 230.9 -68.7 L 230.9 -68.7 L 230.9 -68.7 Q 229.6 -67.6 227.5 -64.8 L 227.5 -64.8 L 227.5 -64.8 Q 225.4 -62.1 225.4 -61.3 L 225.4 -61.3 L 225.4 -61.3 Q 225.4 -59.6 227 -58.2 L 227 -58.2 L 227 -58.2 Q 227.3 -57.8 227.2 -57.5 L 227.2 -57.5 L 227.2 -57.5 Q 227 -57.1 226.5 -57 L 226.5 -57 L 224.1 -56.6 L 224.1 -56.6 Q 223.1 -56.4 222.5 -56.8 L 222.5 -56.8 L 222.5 -56.8 Q 222 -57.2 220.6 -59.7 L 220.6 -59.7 L 215.7 -40.7 L 215.7 -40.7 Q 215.3 -39.3 213.8 -39.3 L 213.8 -39.3 L 211.9 -39.3 L 211.9 -39.3 Q 210.1 -39.3 210.5 -40.8 L 210.5 -40.8 L 218.3 -70.5 L 218.3 -70.5 Q 218.6 -71.8 220.1 -71.8 L 220.1 -71.8 L 222.1 -71.8 L 222.1 -71.8 Q 222.9 -71.8 223.2 -71.5 L 223.2 -71.5 L 223.2 -71.5 Q 223.5 -71.2 223.3 -70.4 L 223.3 -70.4 Z M 252.1 -71.8 L 252.1 -71.8 L 254.5 -71.8 L 254.5 -71.8 Q 254.9 -71.8 255.2 -71.3 L 255.2 -71.3 L 255.2 -71.3 Q 255.4 -70.8 255.2 -70.1 L 255.2 -70.1 L 245.8 -36.1 L 245.8 -36.1 Q 244.3 -30.2 240.8 -28.3 L 240.8 -28.3 L 240.8 -28.3 Q 239.2 -27.4 238.7 -27.3 L 238.7 -27.3 L 238.7 -27.3 Q 237.4 -26.7 235 -28.2 L 235 -28.2 L 228.4 -31.9 L 228.4 -31.9 Q 227.6 -32.3 227.5 -33.1 L 227.5 -33.1 L 227.5 -33.1 Q 227.5 -33.8 227.9 -34.2 L 227.9 -34.2 L 228.9 -35.6 L 228.9 -35.6 Q 229.9 -36.7 231 -36.1 L 231 -36.1 L 238.1 -31.7 L 238.1 -31.7 Q 239.5 -31 240.2 -33.5 L 240.2 -33.5 L 246.4 -55.4 L 244.9 -52.6 L 241.1 -46.3 L 241.1 -46.3 Q 239.1 -42.8 237 -41 L 237 -41 L 237 -41 Q 234.9 -39.3 233.3 -39.3 L 233.3 -39.3 L 232.9 -39.3 L 232.9 -39.3 Q 231.6 -39.3 230.6 -40.3 L 230.6 -40.3 L 230.6 -40.3 Q 228.4 -42.7 229.6 -47.1 L 229.6 -47.1 L 236.2 -70.9 L 236.2 -70.9 Q 236.4 -71.8 237.2 -71.8 L 237.2 -71.8 L 240.5 -71.8 L 240.5 -71.8 Q 241.5 -71.8 241 -70.3 L 241 -70.3 L 234.6 -48.1 L 234.6 -48.1 Q 234.1 -46.1 234.4 -45.6 L 234.4 -45.6 L 234.4 -45.6 Q 235.1 -44.5 237.7 -48.3 L 237.7 -48.3 L 237.7 -48.3 Q 240.2 -52 250.6 -70.9 L 250.6 -70.9 L 250.6 -70.9 Q 251.1 -71.8 252.1 -71.8 Z" fill="url(#editing-gradient-gradient)"></path></g></g><style>text {
  font-size: 64px;
  font-family: Arial Black;
  dominant-baseline: central;
  text-anchor: middle;
}</style></svg>