<svg width="563.3px" height="107.4px" xmlns="http://www.w3.org/2000/svg" viewBox="-31.635040283203125 21.31999816894531 563.2700805664062 107.36000366210938" style="background: rgba(0, 0, 0, 0)" preserveAspectRatio="xMidYMid"><defs><linearGradient id="editing-gradient-gradient" x1="0" x2="1" y1="0.5" y2="0.5" gradientUnits="objectBoundingBox"><stop offset="0" stop-color="#ff00ff"></stop><stop offset="1" stop-color="#00ffff"></stop></linearGradient></defs><g><g transform="matrix(1.4,0,0,1.5,0.1,151.2)"><path d="M -8.6 -78.4 L -8.9 -50.2 L -8.7 -37.4 L -13.8 -37.4 L -13.5 -49.8 L -13.8 -78.4 L -8.6 -78.4 Z M 33.8 -69.3 L 37 -37.4 L 32.7 -37.4 L 32 -47.2 L 30.3 -61.9 L 29.9 -61.9 L 20.8 -41 L 17 -41 L 8.4 -61.9 L 8 -61.9 L 6.3 -47.5 L 5.4 -37.4 L 1.3 -37.4 L 4.8 -69.3 L 10.4 -69.3 L 12 -64.5 L 19 -47.3 L 19.4 -47.3 L 26.7 -64.8 L 28.3 -69.3 L 33.8 -69.3 Z M 60.5 -69.3 L 71.7 -37.4 L 66.9 -37.4 L 66.1 -40.9 L 64.4 -45.6 L 56.8 -45.7 L 50 -45.6 L 48.3 -41.1 L 47.4 -37.4 L 42.7 -37.4 L 55 -69.3 L 60.5 -69.3 Z M 57.2 -49.5 L 63.1 -49.5 L 57.8 -64.6 L 57.4 -64.6 L 51.6 -49.5 L 57.2 -49.5 Z M 92.5 -69.6 L 92.5 -69.6 Q 97.5 -69.6 102.6 -67.4 L 102.6 -67.4 L 101 -62.8 L 100.4 -62.8 L 100.4 -62.8 Q 98 -64.4 96 -65 L 96 -65 L 96 -65 Q 94.1 -65.6 91.8 -65.6 L 91.8 -65.6 L 91.8 -65.6 Q 86.3 -65.6 83.6 -62.5 L 83.6 -62.5 L 83.6 -62.5 Q 80.9 -59.4 80.9 -52.9 L 80.9 -52.9 L 80.9 -52.9 Q 80.9 -46.6 83.4 -43.9 L 83.4 -43.9 L 83.4 -43.9 Q 85.9 -41.1 91.3 -41.1 L 91.3 -41.1 L 91.3 -41.1 Q 92.9 -41.1 94.4 -41.4 L 94.4 -41.4 L 94.4 -41.4 Q 95.9 -41.6 98 -42.4 L 98 -42.4 L 98 -45.6 L 97.9 -50.2 L 102.3 -50.5 L 102.3 -39 L 102.3 -39 Q 95.9 -37 91.1 -37 L 91.1 -37 L 91.1 -37 Q 83.6 -37 79.7 -41.1 L 79.7 -41.1 L 79.7 -41.1 Q 75.8 -45.2 75.8 -52.7 L 75.8 -52.7 L 75.8 -52.7 Q 75.8 -60.9 80.2 -65.3 L 80.2 -65.3 L 80.2 -65.3 Q 84.6 -69.6 92.5 -69.6 L 92.5 -69.6 Z M 123.3 -41.3 L 131.8 -41.5 L 132.2 -41.1 L 131.8 -37.4 L 112.4 -37.4 L 112.6 -47 L 112.4 -69.3 L 131.9 -69.3 L 132.2 -68.9 L 131.8 -65.2 L 123.8 -65.5 L 117.1 -65.4 L 117 -55.7 L 123.4 -55.7 L 128.9 -55.9 L 129.3 -55.4 L 128.9 -51.6 L 123 -51.8 L 117 -51.8 L 117 -47.4 L 117 -41.3 L 123.3 -41.3 Z M 149.6 -69.6 L 149.6 -69.6 Q 153.5 -69.6 157.4 -68.1 L 157.4 -68.1 L 156.6 -63.3 L 155.8 -63.2 L 155.8 -63.2 Q 154 -64.6 152.4 -65.2 L 152.4 -65.2 L 152.4 -65.2 Q 150.8 -65.9 149.1 -65.9 L 149.1 -65.9 L 149.1 -65.9 Q 146.3 -65.9 144.7 -64.5 L 144.7 -64.5 L 144.7 -64.5 Q 143.1 -63 143.1 -61.2 L 143.1 -61.2 L 143.1 -61.2 Q 143.1 -59.3 144.7 -58.2 L 144.7 -58.2 L 144.7 -58.2 Q 146.3 -57 149.5 -55.6 L 149.5 -55.6 L 149.5 -55.6 Q 152.4 -54.3 154.1 -53.3 L 154.1 -53.3 L 154.1 -53.3 Q 155.8 -52.3 157.1 -50.6 L 157.1 -50.6 L 157.1 -50.6 Q 158.3 -48.9 158.3 -46.4 L 158.3 -46.4 L 158.3 -46.4 Q 158.3 -44 157 -41.8 L 157 -41.8 L 157 -41.8 Q 155.6 -39.7 153 -38.4 L 153 -38.4 L 153 -38.4 Q 150.4 -37 146.9 -37 L 146.9 -37 L 146.9 -37 Q 144.6 -37 142.2 -37.6 L 142.2 -37.6 L 142.2 -37.6 Q 139.7 -38.1 137.6 -39.2 L 137.6 -39.2 L 138.2 -44.3 L 138.8 -44.5 L 138.8 -44.5 Q 140.6 -42.7 143 -41.7 L 143 -41.7 L 143 -41.7 Q 145.4 -40.8 147.4 -40.8 L 147.4 -40.8 L 147.4 -40.8 Q 150.1 -40.8 151.9 -42.2 L 151.9 -42.2 L 151.9 -42.2 Q 153.6 -43.6 153.6 -45.7 L 153.6 -45.7 L 153.6 -45.7 Q 153.6 -47.6 152 -48.8 L 152 -48.8 L 152 -48.8 Q 150.4 -49.9 147.1 -51.4 L 147.1 -51.4 L 147.1 -51.4 Q 144.4 -52.7 142.6 -53.7 L 142.6 -53.7 L 142.6 -53.7 Q 140.8 -54.7 139.6 -56.4 L 139.6 -56.4 L 139.6 -56.4 Q 138.4 -58.1 138.4 -60.5 L 138.4 -60.5 L 138.4 -60.5 Q 138.4 -63.1 139.8 -65.1 L 139.8 -65.1 L 139.8 -65.1 Q 141.2 -67.2 143.7 -68.4 L 143.7 -68.4 L 143.7 -68.4 Q 146.2 -69.6 149.6 -69.6 L 149.6 -69.6 Z M 194.6 -78.8 L 194.6 -78.8 Q 201.1 -78.8 206.6 -75.9 L 206.6 -75.9 L 205.6 -71 L 205 -70.9 L 205 -70.9 Q 201.9 -72.8 199.3 -73.6 L 199.3 -73.6 L 199.3 -73.6 Q 196.7 -74.5 193.8 -74.5 L 193.8 -74.5 L 193.8 -74.5 Q 179.9 -74.5 179.9 -57.3 L 179.9 -57.3 L 179.9 -57.3 Q 179.9 -49.1 183.2 -45.2 L 183.2 -45.2 L 183.2 -45.2 Q 186.4 -41.3 193.2 -41.3 L 193.2 -41.3 L 193.2 -41.3 Q 195 -41.3 196.8 -41.6 L 196.8 -41.6 L 196.8 -41.6 Q 198.6 -42 201.5 -42.9 L 201.5 -42.9 L 201.6 -47.7 L 201.6 -53.8 L 206.4 -54.2 L 206.3 -48.4 L 206.5 -39.4 L 206.5 -39.4 Q 202.3 -38.1 199.1 -37.6 L 199.1 -37.6 L 199.1 -37.6 Q 195.9 -37 192.9 -37 L 192.9 -37 L 192.9 -37 Q 183.8 -37 179.2 -42.2 L 179.2 -42.2 L 179.2 -42.2 Q 174.6 -47.3 174.6 -57.1 L 174.6 -57.1 L 174.6 -57.1 Q 174.6 -67.7 179.8 -73.2 L 179.8 -73.2 L 179.8 -73.2 Q 185 -78.8 194.6 -78.8 L 194.6 -78.8 Z M 230.1 -69.3 L 241.3 -37.4 L 236.5 -37.4 L 235.7 -40.9 L 234 -45.6 L 226.4 -45.7 L 219.6 -45.6 L 217.9 -41.1 L 217 -37.4 L 212.3 -37.4 L 224.6 -69.3 L 230.1 -69.3 Z M 226.8 -49.5 L 232.7 -49.5 L 227.4 -64.6 L 227 -64.6 L 221.2 -49.5 L 226.8 -49.5 Z M 266.1 -41.5 L 266.3 -41 L 266 -37.4 L 249.1 -37.4 L 249.3 -47 L 249.1 -69.3 L 253.9 -69.3 L 253.7 -47.4 L 253.8 -41.5 L 266.1 -41.5 Z M 290.2 -41.5 L 290.5 -41 L 290.2 -37.4 L 273.2 -37.4 L 273.4 -47 L 273.2 -69.3 L 278 -69.3 L 277.8 -47.4 L 277.9 -41.5 L 290.2 -41.5 Z M 308.4 -41.3 L 316.9 -41.5 L 317.3 -41.1 L 316.8 -37.4 L 297.5 -37.4 L 297.6 -47 L 297.5 -69.3 L 317 -69.3 L 317.3 -68.9 L 316.9 -65.2 L 308.8 -65.5 L 302.2 -65.4 L 302.1 -55.7 L 308.5 -55.7 L 314 -55.9 L 314.3 -55.4 L 314 -51.6 L 308.1 -51.8 L 302.1 -51.8 L 302.1 -47.4 L 302.1 -41.3 L 308.4 -41.3 Z M 339.9 -50.3 L 339.9 -50.3 Q 343.9 -44.3 348.6 -38.6 L 348.6 -38.6 L 348.5 -37.9 L 348.5 -37.9 Q 345.8 -37.1 344.1 -37 L 344.1 -37 L 343.3 -37.5 L 343.3 -37.5 Q 338.4 -44.8 335.9 -49.1 L 335.9 -49.1 L 329.9 -49 L 329.9 -47.4 L 330 -37.4 L 325.3 -37.4 L 325.5 -47 L 325.3 -69.3 L 336.2 -69.4 L 336.2 -69.4 Q 341.2 -69.4 343.9 -67 L 343.9 -67 L 343.9 -67 Q 346.7 -64.6 346.7 -60.1 L 346.7 -60.1 L 346.7 -60.1 Q 346.7 -56.9 344.9 -54.3 L 344.9 -54.3 L 344.9 -54.3 Q 343.1 -51.8 339.9 -50.3 L 339.9 -50.3 Z M 330 -65.5 L 330 -53 L 336 -52.8 L 336 -52.8 Q 341.7 -54.4 341.7 -59.8 L 341.7 -59.8 L 341.7 -59.8 Q 341.7 -62.6 340 -64 L 340 -64 L 340 -64 Q 338.3 -65.4 335 -65.5 L 335 -65.5 L 330 -65.5 Z M 366.3 -48.6 L 366.3 -46.6 L 366.4 -37.4 L 361.6 -37.4 L 361.9 -46.6 L 361.8 -48.6 L 351 -69.3 L 356.3 -69.3 L 356.9 -67.4 L 364.1 -53.7 L 364.4 -53.7 L 372.2 -67.2 L 373 -69.3 L 378.2 -69.3 L 366.3 -48.6 Z" fill="url(#editing-gradient-gradient)"></path></g></g><style>text {
  font-size: 64px;
  font-family: Arial Black;
  dominant-baseline: central;
  text-anchor: middle;
}</style></svg>